<?xml version="1.0"?>
<svg viewBox="0 0 363.09 363.09" xmlns="http://www.w3.org/2000/svg" xmlns:svg="http://www.w3.org/2000/svg">
 <g class="layer">
  <title>Layer 1</title>
  <path class="cls-1" d="m165.34,1.05l32.08,0c1.09,0.07 2.18,0.17 3.27,0.28c13.98,1.36 27.47,4.2 40.28,8.33c14.36,4.61 27.87,10.85 40.28,18.47c4.84,2.97 9.49,6.15 13.98,9.52c9.07,6.83 17.4,14.47 24.84,22.79c3.61,4 6.99,8.18 10.15,12.49c8.3,11.29 15.08,23.58 20.08,36.62c4.48,11.6 7.55,23.8 9.03,36.44c0.82,7.06 0.98,15.7 1.04,17.64c0.22,7.16 0.12,13.18 0,17.64l0,181.55s-119.39,0 -119.39,0c0,-133.92 0.03,-195.8 0.08,-197.38c0,-0.06 0.03,-0.72 0.03,-1.63c0,-1.09 -0.03,-2.18 -0.11,-3.25c-0.33,-5.08 -1.43,-9.97 -3.19,-14.57c-6.01,-15.73 -19.75,-28.15 -37.09,-33.54c-6.05,-1.88 -12.56,-2.9 -19.31,-2.9s-13.4,1.05 -19.5,2.96c-17.26,5.42 -30.92,17.81 -36.92,33.48c-1.76,4.6 -2.86,9.49 -3.19,14.57c-0.08,1.07 -0.11,2.16 -0.11,3.25s0.03,2.18 0.11,3.25l0,87.43s49.58,0 49.58,0c6.68,0 13.37,0 20.05,0l9.29,0c0.06,11.75 0.14,23.52 0.2,35.28c-3.05,0 -6.12,0 -9.17,0l-21.29,0c-2.85,0 -5.71,0 -8.56,0l-80.38,0s0,-125.49 0,-125.49c0,-6.27 0.7,-12.38 2.02,-18.29c3.05,-13.48 9.38,-25.86 18.22,-36.44c5.7,-6.82 12.45,-12.9 20.03,-18.02c11.66,-7.89 25.29,-13.52 40.11,-16.18c6.3,-1.13 12.82,-1.73 19.5,-1.73s13.07,0.58 19.31,1.7c14.88,2.64 28.57,8.29 40.28,16.21c7.58,5.12 14.33,11.2 20.03,18.02c8.84,10.58 15.17,22.96 18.22,36.44c1.32,5.91 2.02,12.02 2.02,18.29l0,86.93c0,1.09 0,2.19 0,3.28l0,71.88s38.81,0 38.81,0l0,-145.11c-0.06,-3.1 -0.56,-24.58 -1.74,-33c-0.17,-1.17 -0.34,-2.26 -0.34,-2.26s-1,-6.2 -2.74,-12.4c-3.49,-12.48 -9.7,-24.03 -9.7,-24.03c-6.29,-11.7 -14.5,-22.36 -24.29,-31.68c-1.79,-1.7 -3.63,-3.35 -5.51,-4.94c-10.26,-8.74 -21.96,-16.07 -34.77,-21.64c-12.5,-5.46 -26.04,-9.26 -40.28,-11.09c-6.4,-0.83 -12.95,-1.26 -19.61,-1.26s-12.93,0.41 -19.2,1.2c-14.16,1.78 -27.66,5.52 -40.11,10.89c-13.03,5.62 -24.95,13.03 -35.34,21.9c-1.7,1.41 -3.35,2.89 -4.93,4.4c-10.05,9.43 -18.47,20.3 -24.87,32.22c-6.09,11.3 -10.35,23.55 -12.45,36.44c-0.98,6.05 -1.49,12.23 -1.49,18.54l0,198.29s-40.28,0 -40.28,0l0,-199.19c0,-5.95 0.34,-11.84 1.04,-17.64c1.48,-12.63 4.54,-24.84 9.03,-36.44c5,-13.04 11.78,-25.33 20.08,-36.62c3.16,-4.31 6.54,-8.47 10.13,-12.48c7.44,-8.32 15.77,-15.95 24.85,-22.8c4.47,-3.37 9.14,-6.53 13.96,-9.5c12.4,-7.62 25.91,-13.88 40.28,-18.49c12.76,-4.12 26.19,-6.94 40.11,-8.3c1.15,-0.13 2.3,-0.24 3.47,-0.31l0,-0.01z" id="svg_1"/>
 </g>
</svg>